<svg width="325" height="399" viewBox="0 0 325 399" fill="none" xmlns="http://www.w3.org/2000/svg">
<path d="M101.264 218.135C122.789 234.494 127.381 248.844 145.176 269.796" stroke="#18181B" stroke-width="14" stroke-linecap="round" stroke-linejoin="round"/>
<path d="M92.5562 312.25C115.327 302.227 194.253 329.492 239.025 333.223" stroke="#18181B" stroke-width="14" stroke-linecap="round" stroke-linejoin="round"/>
<path d="M236.73 289.599C208.029 287.59 201.715 258.029 179.329 238.656" stroke="#18181B" stroke-width="14" stroke-linecap="round" stroke-linejoin="round"/>
<path d="M147.948 238.656C147.948 238.656 131.862 239.32 123.363 245.4C114.864 251.481 104.421 269.796 104.421 269.796" stroke="#18181B" stroke-width="14" stroke-linecap="round" stroke-linejoin="round"/>
<path d="M216.926 252.001C216.926 252.001 208.779 257.114 200.28 263.195C191.781 269.275 193.204 279.697 193.204 279.697" stroke="#18181B" stroke-width="14" stroke-linecap="round" stroke-linejoin="round"/>
<path d="M66.7986 152.829C-55.203 238.079 26.465 372.412 160.004 388.875C353.615 412.745 288.447 255.128 288.447 255.128" stroke="#18181B" stroke-width="14" stroke-linecap="round" stroke-linejoin="round"/>
<path d="M77.7863 104.331C196.378 65.685 265.714 128.959 297.541 147.525" stroke="#18181B" stroke-width="14" stroke-linecap="round"/>
<path d="M203.577 202.463C220.879 162.428 262.835 75.4603 287.69 64.5484C298.434 73.0132 295.895 105.799 298.299 139.189C301.489 183.515 309.41 228.228 317.622 228.228" stroke="#18181B" stroke-width="14" stroke-linecap="round" stroke-linejoin="round"/>
<path d="M122.117 163.817C113.906 163.817 107.341 126.307 107.341 80.4616C104.938 47.0719 108.233 15.8013 97.4893 7.33643C74.9391 15.7615 53.449 82.7323 32.3492 137.324M32.3492 137.324C23.5882 167.465 21.1412 195.076 15.2421 211.986L32.3492 137.324Z" stroke="#18181B" stroke-width="14" stroke-linecap="round" stroke-linejoin="round"/>
</svg>
